<svg width="960" height="400" viewBox="0 0 960 400" xmlns="http://www.w3.org/2000/svg" fill="none">
  <defs>
    <linearGradient id="bgDark" x1="0" y1="0" x2="1" y2="1">
      <stop stop-color="#0B1221"/>
      <stop offset="1" stop-color="#111B30"/>
    </linearGradient>
    <linearGradient id="btnDark" x1="0" y1="0" x2="1" y2="1">
      <stop stop-color="#1D4ED8"/>
      <stop offset="1" stop-color="#3B82F6"/>
    </linearGradient>
  </defs>
  <rect width="960" height="400" fill="url(#bgDark)"/>
  <rect x="120" y="70" width="720" height="60" rx="18" fill="#0F172A" stroke="#1E293B"/>
  <text x="150" y="110" fill="#E2E8F0" font-family="Segoe UI, Arial" font-size="22" font-weight="700">Simple File Drop</text>
  <text x="150" y="132" fill="#94A3B8" font-family="Segoe UI, Arial" font-size="14">Upload, list, download, and remove files on your own server.</text>
  <rect x="140" y="150" width="340" height="200" rx="14" fill="#0E1626" stroke="#1E293B"/>
  <text x="165" y="185" fill="#E2E8F0" font-family="Segoe UI, Arial" font-size="18" font-weight="700">Upload a file</text>
  <text x="165" y="205" fill="#94A3B8" font-family="Segoe UI, Arial" font-size="13">Files are saved under /uploads.</text>
  <rect x="160" y="220" width="300" height="110" rx="12" fill="#0F1C31" stroke="#1E293B" stroke-dasharray="6 6"/>
  <text x="180" y="255" fill="#CBD5E1" font-family="Segoe UI, Arial" font-size="14" font-weight="700">Drag files or folders here</text>
  <text x="180" y="275" fill="#94A3B8" font-family="Segoe UI, Arial" font-size="13">You can also pick multiple files at once.</text>
  <rect x="180" y="285" width="90" height="32" rx="9" fill="#1E293B" stroke="#1E3A8A"/>
  <text x="198" y="306" fill="#E2E8F0" font-family="Segoe UI, Arial" font-size="13" font-weight="700">Browse…</text>
  <rect x="280" y="285" width="90" height="32" rx="9" fill="url(#btnDark)"/>
  <text x="304" y="306" fill="#F8FAFC" font-family="Segoe UI, Arial" font-size="13" font-weight="700">Upload</text>
  <rect x="480" y="150" width="340" height="200" rx="14" fill="#0E1626" stroke="#1E293B"/>
  <text x="505" y="185" fill="#E2E8F0" font-family="Segoe UI, Arial" font-size="18" font-weight="700">Uploaded files</text>
  <text x="505" y="205" fill="#94A3B8" font-family="Segoe UI, Arial" font-size="13">Browse your uploaded folders and files.</text>
  <rect x="505" y="220" width="300" height="40" rx="10" fill="#111D33" stroke="#1E293B"/>
  <text x="525" y="244" fill="#94A3B8" font-family="Segoe UI, Arial" font-size="12">No files uploaded yet.</text>
</svg>
